<svg xmlns="http://www.w3.org/2000/svg" width="19.763" height="24.557" viewBox="0 0 19.763 24.557"><g transform="translate(-92.17 -8.94)"><path d="M0,0H19.678a0,0,0,0,1,0,0V16.147a5,5,0,0,1-5,5H5a5,5,0,0,1-5-5V0A0,0,0,0,1,0,0Z" transform="translate(92.212 12.35)" fill="#fff"/><path d="M104.707,19.429a4.5,4.5,0,0,1,1.848,3.635.739.739,0,0,1-.739.739H98.287a.739.739,0,0,1-.739-.739A4.5,4.5,0,0,1,99.4,19.429a3.15,3.15,0,1,1,5.31,0Zm-7.962,8.008a.739.739,0,0,1,0-1.478h10.613a.739.739,0,0,1,0,1.478Zm-.667-15.8V9.669a.739.739,0,0,1,1.478,0v1.97h3.758V9.669a.739.739,0,0,1,1.477,0v1.97h3.758V9.669a.739.739,0,0,1,1.478,0v1.97h3.169a.738.738,0,0,1,.739.739V29.663A3.843,3.843,0,0,1,108.1,33.5H96a3.843,3.843,0,0,1-3.834-3.834V12.377a.738.738,0,0,1,.739-.739h3.169Zm14.378,1.477H93.647V29.663A2.365,2.365,0,0,0,96,32.019h12.1a2.365,2.365,0,0,0,2.357-2.356Zm-9.966,7.354a3.037,3.037,0,0,0-1.373,1.856h5.871a3.037,3.037,0,0,0-1.373-1.856,3.151,3.151,0,0,1-3.124,0Zm1.562-4.408a1.672,1.672,0,1,0,1.672,1.672,1.672,1.672,0,0,0-1.672-1.672Z" transform="translate(0 0)"/></g></svg>