<svg xmlns="http://www.w3.org/2000/svg" width="19.333" height="22.445" viewBox="0 0 19.333 22.445"><g transform="translate(-6 -5)"><path d="M22.447,18.787A1.547,1.547,0,0,1,20.9,17.24V10.28a7.733,7.733,0,0,0-6.96-7.695V1H12.393V2.585a7.733,7.733,0,0,0-6.96,7.695v6.96a1.547,1.547,0,0,1-1.547,1.547H3.5v1.547h7.486a2.32,2.32,0,1,0,4.362,0h7.486V18.787ZM6.98,17.24V10.28a6.187,6.187,0,1,1,12.373,0v6.96a3.024,3.024,0,0,0,.433,1.547H6.547A3.024,3.024,0,0,0,6.98,17.24Zm6.96,3.867a.773.773,0,1,1-.773-.773A.773.773,0,0,1,13.94,21.107Z" transform="translate(2.5 4)"/></g></svg>