<svg xmlns="http://www.w3.org/2000/svg" width="22.01" height="21.647" viewBox="0 0 22.01 21.647"><g transform="translate(-0.677)"><circle cx="6.253" cy="6.253" r="6.253" transform="translate(5.487 5.869)" fill="#fff"/><line x2="5.106" y2="5.106" transform="translate(9.187 9.569)" fill="none" stroke="#151515" stroke-linecap="round" stroke-width="1.5"/><line x1="5.106" y2="5.106" transform="translate(9.187 9.569)" fill="none" stroke="#151515" stroke-linecap="round" stroke-width="1.5"/><path d="M21.052,3.442V1.74a.74.74,0,1,0-1.479,0v1.7H6.438V1.74A.7.7,0,0,0,5.7,1a.7.7,0,0,0-.74.74v1.7A2.968,2.968,0,0,0,2,6.4V19.688a2.968,2.968,0,0,0,2.959,2.959H21.052a2.968,2.968,0,0,0,2.959-2.959V6.4A2.968,2.968,0,0,0,21.052,3.442Zm1.479,16.246a1.484,1.484,0,0,1-1.479,1.479H4.959a1.484,1.484,0,0,1-1.479-1.479V6.4A1.484,1.484,0,0,1,4.959,4.921a.7.7,0,0,0,.74.74.7.7,0,0,0,.74-.74H19.572a.74.74,0,0,0,1.479,0A1.484,1.484,0,0,1,22.531,6.4Z" transform="translate(-1.323 -1)"/></g></svg>