<svg xmlns="http://www.w3.org/2000/svg" width="17.915" height="20.151" viewBox="0 0 17.915 20.151"><g transform="translate(-5.037 -2.069)"><line x2="7.328" transform="translate(10.602 14.613)" fill="none" stroke="#fff" stroke-linecap="round" stroke-linejoin="round" stroke-width="1.8"/><line x2="7.328" transform="translate(10.602 11.646)" fill="none" stroke="#fff" stroke-linecap="round" stroke-linejoin="round" stroke-width="1.8"/><path d="M59.28,40h4.029a.77.77,0,0,1,.806.728V56.012a.77.77,0,0,1-.806.728h-14.5A.77.77,0,0,1,48,56.012V40.728A.77.77,0,0,1,48.806,40h4.029" transform="translate(-42.063 -35.42)" fill="none" stroke="#fff" stroke-linecap="round" stroke-linejoin="round" stroke-width="1.8"/><path d="M88,28.834v-.806a4.029,4.029,0,0,1,8.057,0v.806Z" transform="translate(-78.034 -21.031)" fill="none" stroke="#fff" stroke-linecap="round" stroke-linejoin="round" stroke-width="1.8"/></g></svg>