<svg xmlns="http://www.w3.org/2000/svg" width="19.957" height="24.476" viewBox="0 0 19.957 24.476"><g transform="translate(-1260.021 -869.524)"><rect width="18" height="20" transform="translate(1261.643 872.524)" fill="#fff"/><path d="M20.387,9.873a.722.722,0,0,1,0,1.082l-2.91,2.677a.885.885,0,0,1-1.149.024l-1.247-1.048a.723.723,0,0,1-.053-1.081.883.883,0,0,1,1.175-.049l.661.555,2.348-2.16A.884.884,0,0,1,20.387,9.873Zm0,8.731a.722.722,0,0,0,0-1.082.884.884,0,0,0-1.176,0l-2.348,2.16-.661-.555a.883.883,0,0,0-1.175.049.723.723,0,0,0,.053,1.081L16.328,21.3a.885.885,0,0,0,1.149-.024ZM8.158,11.179a.768.768,0,1,0,0,1.53h4.158a.768.768,0,1,0,0-1.53Zm-.832,8.414a.8.8,0,0,1,.832-.765h4.158a.768.768,0,1,1,0,1.53H8.158A.8.8,0,0,1,7.326,19.592ZM9.131,3.53A2.491,2.491,0,0,1,11.484,2h4.989a2.491,2.491,0,0,1,2.353,1.53h2.637a2.4,2.4,0,0,1,2.495,2.295V24.182a2.4,2.4,0,0,1-2.495,2.295H6.495A2.4,2.4,0,0,1,4,24.182V5.824A2.4,2.4,0,0,1,6.495,3.53Zm2.353,0a.8.8,0,0,0-.832.765.8.8,0,0,0,.832.765h4.989a.8.8,0,0,0,.832-.765.8.8,0,0,0-.832-.765ZM9.131,5.06H6.495a.8.8,0,0,0-.832.765V24.182a.8.8,0,0,0,.832.765H21.463a.8.8,0,0,0,.832-.765V5.824a.8.8,0,0,0-.832-.765H18.826a2.491,2.491,0,0,1-2.353,1.53H11.484A2.491,2.491,0,0,1,9.131,5.06Z" transform="translate(1256.021 867.524)" fill="#212121"/></g></svg>