<svg xmlns="http://www.w3.org/2000/svg" width="23.37" height="25.874" viewBox="0 0 23.37 25.874"><g transform="translate(-0.999 -0.5)"><circle cx="6.835" cy="6.835" r="6.835" transform="translate(5.858 7.656)" fill="#fff"/><path d="M11.247,5.905a.805.805,0,0,0-1.61,0v4.67H4.805a.805.805,0,1,0,0,1.61h5.637a.805.805,0,0,0,.805-.805Z" transform="translate(1.963 3.186)"/><path d="M10.182,1.335A.835.835,0,0,1,11.016.5h3.339a.835.835,0,1,1,0,1.669v.951a11.643,11.643,0,0,1,5.983,2.738l.02-.022.591-.591-.591-.589a.835.835,0,0,1,1.18-1.182L23.9,5.837a.835.835,0,1,1-1.18,1.18l-.589-.591-.591.591-.022.02a11.685,11.685,0,1,1-10.5-3.914V2.169A.835.835,0,0,1,10.182,1.335Zm2.5,3.339A10.016,10.016,0,1,0,22.7,14.689,10.015,10.015,0,0,0,12.686,4.673Z" transform="translate(0 0)"/></g></svg>