<svg xmlns="http://www.w3.org/2000/svg" width="30.964" height="27.57" viewBox="0 0 30.964 27.57"><path d="M28.179,28.4H2.266a2,2,0,0,1-1.734-3L13.487,2.834a2,2,0,0,1,3.469,0L29.913,25.4a2,2,0,0,1-1.734,3ZM15.372,20.98a1.54,1.54,0,1,0,1.11.451A1.515,1.515,0,0,0,15.372,20.98Zm0-11.167a1.586,1.586,0,0,0-1.119.365,1.172,1.172,0,0,0-.356.971l.468,7.629a.961.961,0,0,0,.3.642,1.006,1.006,0,0,0,.711.243,1.031,1.031,0,0,0,.711-.234.9.9,0,0,0,.294-.616l.469-7.664a1.175,1.175,0,0,0-.355-.971A1.586,1.586,0,0,0,15.372,9.813Z" transform="translate(0.26 -1.33)" fill="#f9b037" stroke="rgba(0,0,0,0)" stroke-miterlimit="10" stroke-width="1"/></svg>