<svg xmlns="http://www.w3.org/2000/svg" xmlns:xlink="http://www.w3.org/1999/xlink" width="16" height="16" viewBox="0 0 16 16">
    <defs>
        <clipPath id="a">
            <rect width="16" height="5" transform="translate(0 2)" fill="#333" />
        </clipPath>
    </defs>
    <g transform="translate(0 -2)">
        <path d="M0,0H16V16H0Z" transform="translate(0 2)" fill="none" />
        <path d="M11.129,4.556h5.257a.788.788,0,0,1,.8.778v.778H2.816V3.778A.788.788,0,0,1,3.614,3H9.532ZM2.885,7.667h14.23a.808.808,0,0,1,.588.251.766.766,0,0,1,.208.591l-.666,7.778a.79.79,0,0,1-.8.713H3.55a.79.79,0,0,1-.8-.713L2.089,8.509A.766.766,0,0,1,2.3,7.918a.808.808,0,0,1,.588-.251Z" transform="translate(-2.087)" fill="#151515" />
        <g clip-path="url(#a)">
            <path d="M11.129,4.556h5.257a.788.788,0,0,1,.8.778v.778H2.816V3.778A.788.788,0,0,1,3.614,3H9.532ZM2.885,7.667h14.23a.808.808,0,0,1,.588.251.766.766,0,0,1,.208.591l-.666,7.778a.79.79,0,0,1-.8.713H3.55a.79.79,0,0,1-.8-.713L2.089,8.509A.766.766,0,0,1,2.3,7.918a.808.808,0,0,1,.588-.251Z" transform="translate(-2)" fill="#003288" />
        </g>
    </g>
</svg>