<svg xmlns="http://www.w3.org/2000/svg" width="21.052" height="21.334" viewBox="0 0 21.052 21.334"><g transform="translate(-0.529 5.251)"><path d="M13.147,2.351a2.215,2.215,0,0,0-1.565.687A2.222,2.222,0,0,0,10.887,4.6a3.372,3.372,0,0,0,1.172,2.4c.629.611,1.371,1.132,2.081,1.781a.752.752,0,0,0,1.016,0c.71-.649,1.458-1.17,2.087-1.781a3.364,3.364,0,0,0,1.164-2.4,2.215,2.215,0,0,0-.687-1.565,2.215,2.215,0,0,0-1.565-.687,2.078,2.078,0,0,0-1.132.21,2.242,2.242,0,0,0-.371.367,2.245,2.245,0,0,0-.372-.367A2.077,2.077,0,0,0,13.147,2.351Zm0,1.5a3.492,3.492,0,0,1,.371.006,8.265,8.265,0,0,1,.559.611.752.752,0,0,0,1.144,0,7.985,7.985,0,0,1,.561-.611,3.5,3.5,0,0,1,.372-.006A.883.883,0,0,1,16.9,4.6a1.754,1.754,0,0,1-.711,1.328c-.375.364-.969.832-1.542,1.314-.574-.484-1.168-.95-1.543-1.314A1.763,1.763,0,0,1,12.391,4.6a.815.815,0,0,1,.251-.5A.824.824,0,0,1,13.147,3.855ZM1.206,7.665a.752.752,0,0,0-.677.749v7.52a.752.752,0,0,0,.749.749H4.287a.752.752,0,0,0,.755-.749h8.1a.752.752,0,0,0,.267-.05l5.861-2.242a3.065,3.065,0,0,0,2.308-2.786,1.8,1.8,0,0,0-.793-1.526A2.336,2.336,0,0,0,18.818,9.2l-.04.01-5.771,2.21H11.863a2.57,2.57,0,0,0,.116-.872A2.579,2.579,0,0,0,11.236,9.1a2.552,2.552,0,0,0-1.781-.683H5.042a.752.752,0,0,0-.755-.749H1.278q-.036,0-.072,0Zm.828,1.5h1.5v6.016h-1.5Zm3.007.755H9.455a.956.956,0,0,1,.737.261,1.1,1.1,0,0,1,.3.611,1.087,1.087,0,0,1-.056.577c-.022.044-.021.051-.019.056H7.294a.752.752,0,0,0,0,1.5h5.85a.752.752,0,0,0,.267-.05l5.861-2.242c.457-.145.651-.071.709-.034s.1.078.1.255a1.656,1.656,0,0,1-1.26,1.354l-.04.012L13.007,14.43H5.042V9.917Z" transform="translate(0 -0.599)" fill="#fff"/><g transform="translate(3.686 0.276)" fill="none" stroke="#fff" stroke-width="1.8"><circle cx="2.763" cy="2.763" r="2.763" stroke="none"/><circle cx="2.763" cy="2.763" r="1.863" fill="none"/></g><g transform="translate(8.292 -5.251)" fill="none" stroke="#fff" stroke-width="1.8"><circle cx="2.763" cy="2.763" r="2.763" stroke="none"/><circle cx="2.763" cy="2.763" r="1.863" fill="none"/></g></g></svg>