<svg xmlns="http://www.w3.org/2000/svg" width="20" height="20" viewBox="0 0 20 20">
  <g transform="translate(0 -0.4)">
    <rect width="20" height="20" transform="translate(0 0.4)" opacity="0" />
    <g transform="translate(-0.135 0.265)">
      <path d="M12.907,15.513,9.166,10.231A4.949,4.949,0,1,1,17.82,6.994a5.037,5.037,0,0,1-1.106,3.151Zm0-12.284A3.728,3.728,0,0,0,9.221,6.994a3.8,3.8,0,0,0,.915,2.457l2.77,3.925,2.844-4a3.833,3.833,0,0,0,.841-2.377,3.728,3.728,0,0,0-3.685-3.765Z" transform="translate(-3.172 -0.865)" />
      <circle cx="1.5" cy="1.5" r="1.5" transform="translate(8.229 4.277)" />
      <path d="M17.97,12H16.741v1.228H17.97v8.6H3.228v-8.6H4.457V12H3.228A1.228,1.228,0,0,0,2,13.228v8.6a1.228,1.228,0,0,0,1.228,1.228H17.97A1.228,1.228,0,0,0,19.2,21.828v-8.6A1.228,1.228,0,0,0,17.97,12Z" transform="translate(-0.865 -4.723)" />
    </g>
  </g>
</svg>