<svg width="300" height="25" viewBox="0 0 300 25" fill="none" xmlns="http://www.w3.org/2000/svg">
<path d="M27.98 0L13.99 24.23L41.99 24.26L27.98 0Z" fill="#FF5000"/>
<path d="M14.01 24.26L27.99 0.03L0 0L14.01 24.26Z" fill="#BEBEBE"/>
<path d="M62.1806 7.3289C62.0681 6.54155 61.4182 5.20432 59.3687 5.20432C57.9689 5.20432 57.0566 6.09164 57.0566 7.01646C57.0566 7.8288 57.569 8.42868 58.7313 8.64114L60.9933 9.06606C64.2177 9.66594 65.8799 11.728 65.8799 14.1401C65.8799 16.7895 63.6678 19.489 59.6436 19.489C54.9695 19.489 52.9574 16.4521 52.72 14.0776L56.1818 13.2402C56.3318 14.7899 57.369 16.1522 59.6936 16.1522C61.1683 16.1522 62.0806 15.4398 62.0806 14.39C62.0806 13.5277 61.3933 12.9153 60.2685 12.6903L57.9564 12.2529C55.082 11.703 53.3573 9.80341 53.3573 7.29141C53.3573 4.10454 56.1693 1.85498 59.4186 1.85498C63.6303 1.85498 65.23 4.37948 65.5924 6.36659L62.2056 7.3164L62.1806 7.3289Z" fill="black"/>
<path d="M67.6544 19.1391V7.27893H71.1162V8.64116C71.7286 7.59137 73.2408 6.9165 74.528 6.9165C76.2152 6.9165 77.4275 7.60387 78.0398 8.77864C78.9647 7.4414 80.1019 6.9165 81.7016 6.9165C83.9512 6.9165 86.0882 8.22874 86.0882 11.4531V19.1391H82.5889V12.2654C82.5889 11.1407 81.9891 10.2658 80.7018 10.2658C79.4146 10.2658 78.7147 11.2406 78.7147 12.2904V19.1266H75.1404V12.2529C75.1404 11.1282 74.553 10.2533 73.2283 10.2533C71.9036 10.2533 71.2662 11.2282 71.2662 12.2904V19.1141H67.6419L67.6544 19.1391Z" fill="black"/>
<path d="M90.1001 1.53003C91.2999 1.53003 92.2497 2.47984 92.2497 3.64211C92.2497 4.80438 91.2999 5.77919 90.1001 5.77919C88.9003 5.77919 88.0005 4.81688 88.0005 3.64211C88.0005 2.46734 88.9628 1.53003 90.1001 1.53003ZM88.3129 7.27889H91.9497V19.139H88.3129V7.27889Z" fill="black"/>
<path d="M97.8487 1.86755H94.2244V19.1391H97.8487V1.86755Z" fill="black"/>
<path d="M111.096 15.7273C110.509 17.7769 108.634 19.489 105.622 19.489C102.36 19.489 99.4483 17.152 99.4483 13.1653C99.4483 9.17856 102.285 6.9165 105.372 6.9165C109.034 6.9165 111.296 9.17856 111.296 13.0028C111.296 13.5152 111.246 14.0526 111.221 14.1276H102.985C103.06 15.4648 104.272 16.4146 105.672 16.4146C106.984 16.4146 107.722 15.8022 108.059 14.8649L111.096 15.7273ZM107.797 11.7905C107.747 10.8782 107.147 9.77844 105.422 9.77844C103.897 9.77844 103.135 10.9032 103.06 11.7905H107.797Z" fill="black"/>
<path d="M115.545 18.9016C115.77 20.0388 116.732 20.8762 118.082 20.8762C119.894 20.8762 121.019 20.0013 121.019 17.8518V17.3019C120.582 17.9393 119.557 18.6266 117.845 18.6266C114.695 18.6266 112.333 16.1521 112.333 12.8528C112.333 9.72838 114.595 7.06641 117.845 7.06641C119.782 7.06641 120.806 7.91624 121.131 8.54112V7.27886H124.593V17.6518C124.593 21.0636 122.681 24.0131 118.257 24.0131C114.845 24.0131 112.671 21.9135 112.333 19.7889L115.533 18.8891L115.545 18.9016ZM121.044 12.8528C121.044 11.2406 119.882 10.2408 118.507 10.2408C117.132 10.2408 115.97 11.2531 115.97 12.8528C115.97 14.4524 117.07 15.4897 118.507 15.4897C119.944 15.4897 121.044 14.4899 121.044 12.8528Z" fill="black"/>
<path d="M135.254 17.6144C134.741 18.7517 133.542 19.464 132.067 19.464C128.593 19.464 126.181 16.827 126.181 13.1653C126.181 9.50349 128.443 6.9165 131.942 6.9165C134.066 6.9165 134.991 8.09127 135.229 8.64116V7.27893H138.741V17.0145C138.741 18.1143 138.803 18.8766 138.841 19.1391H135.354C135.316 18.8766 135.266 18.2268 135.266 17.7269V17.6144H135.254ZM132.529 16.3396C133.991 16.3396 135.229 15.1899 135.229 13.1903C135.229 11.1907 134.016 10.0534 132.529 10.0534C131.042 10.0534 129.817 11.1282 129.817 13.1903C129.817 15.2524 131.03 16.3396 132.529 16.3396Z" fill="black"/>
<path d="M145.552 7.27883H147.851V10.4532H145.552V14.8898C145.552 15.8646 146.077 16.1271 146.864 16.1271C147.239 16.1271 147.601 16.0521 147.814 16.0021V19.014C147.676 19.089 147.076 19.3514 145.927 19.3514C143.477 19.3514 141.965 17.9017 141.965 15.5397V10.4657H139.878V7.29133H140.465C141.715 7.29133 142.302 6.45399 142.302 5.35421V3.81702H145.552V7.27883Z" fill="black"/>
<path d="M160.336 15.7273C159.761 17.7769 157.874 19.489 154.875 19.489C151.613 19.489 148.701 17.152 148.701 13.1653C148.701 9.17856 151.538 6.9165 154.625 6.9165C158.287 6.9165 160.549 9.17856 160.549 13.0028C160.549 13.5152 160.499 14.0526 160.486 14.1276H152.225C152.288 15.4648 153.525 16.4146 154.912 16.4146C156.225 16.4146 156.962 15.8022 157.299 14.8649L160.336 15.7273ZM157.037 11.7905C156.987 10.8782 156.374 9.77844 154.662 9.77844C153.15 9.77844 152.375 10.9032 152.3 11.7905H157.049H157.037Z" fill="black"/>
<path d="M177.608 18.9642V12.7404H170.459V18.9642H168.522V4.95447H170.459V10.9408H177.608V4.95447H179.545V18.9642H177.608Z" fill="black"/>
<path d="M191.543 14.2026C191.543 17.1021 189.531 19.2641 186.681 19.2641C183.832 19.2641 181.82 17.1146 181.82 14.2026C181.82 11.2907 183.832 9.16614 186.681 9.16614C189.531 9.16614 191.543 11.3157 191.543 14.2026ZM189.643 14.2026C189.643 12.0156 188.256 10.8283 186.681 10.8283C185.106 10.8283 183.719 12.0156 183.719 14.2026C183.719 16.3897 185.106 17.602 186.681 17.602C188.256 17.602 189.643 16.4147 189.643 14.2026Z" fill="black"/>
<path d="M193.605 18.9642V4.66699H195.467V18.9642H193.605Z" fill="black"/>
<path d="M204.99 17.5269C204.54 18.4393 203.528 19.2266 202.04 19.2266C199.253 19.2266 197.541 17.0146 197.541 14.1901C197.541 11.3657 199.353 9.21609 202.04 9.21609C203.715 9.21609 204.627 10.0409 204.94 10.8158V4.66699H206.777V17.2145C206.777 18.1268 206.852 18.8142 206.877 18.9767H205.077C205.04 18.7642 204.977 18.2643 204.977 17.6894V17.5269H204.99ZM202.228 17.5894C203.928 17.5894 204.977 16.1022 204.977 14.1526C204.977 12.203 203.953 10.8533 202.253 10.8533C200.553 10.8533 199.453 12.2405 199.453 14.1901C199.453 16.1397 200.466 17.5894 202.24 17.5894H202.228Z" fill="black"/>
<path d="M210.551 4.52942C211.301 4.52942 211.889 5.1168 211.889 5.86665C211.889 6.61651 211.301 7.19139 210.551 7.19139C209.802 7.19139 209.227 6.60401 209.227 5.86665C209.227 5.1293 209.814 4.52942 210.551 4.52942ZM209.639 18.9641V9.46594H211.476V18.9641H209.639Z" fill="black"/>
<path d="M216.2 18.9641H214.338V9.46599H216.15V10.8282C216.838 9.64095 217.962 9.19104 219.075 9.19104C221.349 9.19104 222.474 10.8282 222.474 12.9403V18.9641H220.612V13.2527C220.612 11.928 220.062 10.8657 218.4 10.8657C216.938 10.8657 216.188 12.028 216.188 13.4777V18.9641H216.2Z" fill="black"/>
<path d="M226.261 19.0641C226.398 20.3888 227.411 21.3886 228.848 21.3886C230.847 21.3886 231.747 20.3638 231.747 18.3142V16.952C231.297 17.8268 230.272 18.5142 228.848 18.5142C226.323 18.5142 224.486 16.6021 224.486 13.9151C224.486 11.2281 226.248 9.29102 228.848 9.29102C230.31 9.29102 231.297 9.84091 231.772 10.7907V9.46598H233.609V18.2517C233.609 20.6638 232.422 23.0133 228.848 23.0133C226.473 23.0133 224.699 21.5136 224.461 19.4765L226.261 19.0641ZM231.835 13.9151C231.835 12.078 230.735 10.8782 229.135 10.8782C227.536 10.8782 226.386 12.078 226.386 13.9151C226.386 15.7522 227.448 16.952 229.135 16.952C230.822 16.952 231.835 15.7522 231.835 13.9151Z" fill="black"/>
<path d="M237.059 15.9023C237.184 16.8896 237.933 17.6769 239.271 17.6769C240.32 17.6769 240.895 17.0895 240.895 16.4147C240.895 15.8273 240.458 15.3649 239.671 15.1899L238.046 14.84C236.559 14.5275 235.671 13.5152 235.671 12.178C235.671 10.5533 237.196 9.17859 239.046 9.17859C241.658 9.17859 242.458 10.8783 242.657 11.7281L241.02 12.3405C240.945 11.8406 240.545 10.7658 239.046 10.7658C238.096 10.7658 237.471 11.3782 237.471 12.028C237.471 12.6029 237.821 13.0153 238.558 13.1653L240.095 13.5027C241.82 13.8777 242.72 14.9275 242.72 16.3272C242.72 17.7269 241.595 19.2766 239.246 19.2766C236.634 19.2766 235.534 17.6019 235.371 16.5146L237.046 15.9148L237.059 15.9023Z" fill="black"/>
<path d="M259.834 8.47112C259.773 7.81427 259.506 7.30279 259.032 6.93668C258.563 6.57057 257.932 6.38751 257.137 6.38751C256.602 6.38751 256.141 6.46827 255.754 6.62979C255.372 6.79131 255.079 7.01475 254.876 7.3001C254.677 7.58545 254.578 7.91118 254.578 8.2773C254.567 8.83185 254.784 9.26795 255.227 9.58561C255.675 9.90327 256.292 10.159 257.076 10.3528L258.489 10.7163C259.931 11.0608 261.069 11.6288 261.905 12.4203C262.745 13.2064 263.168 14.2535 263.173 15.5619C263.168 16.5687 262.923 17.4436 262.439 18.1866C261.961 18.9296 261.265 19.5029 260.354 19.9067C259.447 20.3106 258.367 20.5125 257.114 20.5125C255.851 20.5125 254.753 20.3079 253.821 19.8987C252.889 19.4895 252.166 18.8838 251.651 18.0816C251.137 17.274 250.864 16.2887 250.834 15.1258H253.989C254.025 15.6695 254.175 16.1272 254.44 16.4987C254.71 16.8702 255.069 17.1501 255.517 17.3386C255.971 17.527 256.49 17.6212 257.076 17.6212C257.636 17.6212 258.128 17.5351 258.551 17.3628C258.978 17.1905 259.307 16.9482 259.536 16.636C259.77 16.3183 259.888 15.9549 259.888 15.5457C259.888 15.1796 259.786 14.87 259.582 14.617C259.378 14.3585 259.083 14.1405 258.696 13.9628C258.314 13.7798 257.82 13.6102 257.213 13.454L255.502 13.0098C252.66 12.2776 251.241 10.7755 251.246 8.50343C251.241 7.52354 251.493 6.65671 252.003 5.90295C252.512 5.14381 253.215 4.55695 254.112 4.14238C255.013 3.72243 256.029 3.51245 257.16 3.51245C258.301 3.51245 259.307 3.72243 260.178 4.14238C261.049 4.55695 261.726 5.14111 262.21 5.89487C262.694 6.64325 262.944 7.502 262.959 8.47112H259.834Z" fill="black"/>
<path d="M263.623 20.2782L269.033 3.73858H273.212L278.621 20.2782H275.137L273.961 16.4664H268.284L267.107 20.2782H263.623ZM273.128 13.7771L271.18 7.4697H271.057L269.109 13.7771H273.128Z" fill="black"/>
<path d="M283.945 3.73858L288.292 14.9481H288.475L292.823 3.73858H296.834V20.2782H293.678V9.44832H293.549L289.469 20.2056H287.299L283.219 9.40794H283.089V20.2782H279.941V3.73858H283.945Z" fill="black"/>
</svg>
