<svg xmlns="http://www.w3.org/2000/svg" width="31.625" height="31.625" viewBox="0 0 31.625 31.625"><path d="M15.312,30.625A15.312,15.312,0,0,1,4.484,4.485,15.313,15.313,0,0,1,26.139,26.14,15.213,15.213,0,0,1,15.312,30.625ZM15.484,20.1a1.76,1.76,0,1,0,1.269.515A1.732,1.732,0,0,0,15.484,20.1Zm0-12.769a1.813,1.813,0,0,0-1.279.417A1.338,1.338,0,0,0,13.8,8.86l.536,8.724a1.1,1.1,0,0,0,.337.734,1.15,1.15,0,0,0,.813.277,1.18,1.18,0,0,0,.814-.267,1.038,1.038,0,0,0,.337-.7l.535-8.763a1.34,1.34,0,0,0-.407-1.111A1.81,1.81,0,0,0,15.484,7.332Z" transform="translate(0.501 0.5)" fill="#da1e28" stroke="rgba(0,0,0,0)" stroke-miterlimit="10" stroke-width="1"/></svg>