<svg xmlns="http://www.w3.org/2000/svg" width="26.172" height="24.617" viewBox="0 0 26.172 24.617"><g transform="translate(-5.65 -3.75)"><path d="M6.5,39.7H22.541l4.971-7.5" transform="translate(-0.055 -15.183)" fill="none" stroke="#151515" stroke-linecap="round" stroke-linejoin="round" stroke-miterlimit="10" stroke-width="1.5"/><line x2="2.033" y2="2.802" transform="translate(20.453 24.518)" fill="none" stroke="#151515" stroke-linecap="round" stroke-linejoin="round" stroke-miterlimit="10" stroke-width="1.5"/><line x1="2.033" y2="2.802" transform="translate(7.801 24.518)" fill="none" stroke="#151515" stroke-linecap="round" stroke-linejoin="round" stroke-miterlimit="10" stroke-width="1.5"/><line y1="1.536" transform="translate(18.736 4.5)" fill="none" stroke="#151515" stroke-linecap="round" stroke-linejoin="round" stroke-miterlimit="10" stroke-width="1.5"/><path d="M34,37.926V26.9" transform="translate(-15.128 -13.408)" fill="none" stroke="#151515" stroke-linecap="round" stroke-linejoin="round" stroke-miterlimit="10" stroke-width="1.5"/><path d="M31.072,13.187c0,1.13-1.4,2.169-3.118,2.169a3.2,3.2,0,0,1-3.073-1.627c-.316.949-1.536,1.627-3.073,1.627a3.15,3.15,0,0,1-3.073-1.627c-.316.949-1.536,1.627-3.073,1.627a3.15,3.15,0,0,1-3.073-1.627c-.316.949-1.536,1.627-3.073,1.627C7.8,15.356,6.4,14.317,6.4,13.187L18.736,7.9Z" transform="translate(0 -1.864)" fill="#fff"/><path d="M31.072,13.187c0,1.13-1.4,2.169-3.118,2.169a3.2,3.2,0,0,1-3.073-1.627c-.316.949-1.536,1.627-3.073,1.627a3.15,3.15,0,0,1-3.073-1.627c-.316.949-1.536,1.627-3.073,1.627a3.15,3.15,0,0,1-3.073-1.627c-.316.949-1.536,1.627-3.073,1.627C7.8,15.356,6.4,14.317,6.4,13.187L18.736,7.9Z" transform="translate(0 -1.864)" fill="none" stroke="#151515" stroke-linecap="round" stroke-linejoin="round" stroke-miterlimit="10" stroke-width="1.5"/></g></svg>