<svg xmlns="http://www.w3.org/2000/svg" width="20.967" height="20.967" viewBox="0 0 20.967 20.967"><g transform="translate(-0.85 -0.85)"><path d="M14.133,18.267a4.133,4.133,0,1,1,4.133-4.133A4.133,4.133,0,0,1,14.133,18.267Zm0-6.889a2.756,2.756,0,1,0,2.756,2.756A2.756,2.756,0,0,0,14.133,11.378Z" transform="translate(-2.8 -2.8)" fill="#fff" stroke="#fff" stroke-width="0.3"/><path d="M16.644,28.2H9.756A2.756,2.756,0,0,1,7,25.44V23.683a.689.689,0,0,1,.434-.634l2.508-1.006a.689.689,0,1,1,.5,1.281l-2.067.827V25.44a1.378,1.378,0,0,0,1.378,1.378h6.889a1.378,1.378,0,0,0,1.378-1.378V24.151l-2.067-.827a.69.69,0,1,1,.51-1.281l2.508,1.006a.689.689,0,0,1,.434.634V25.44A2.756,2.756,0,0,1,16.644,28.2Z" transform="translate(-1.867 -6.528)" fill="#fff" stroke="#fff" stroke-width="0.3"/><path d="M7.444,7.889a3.444,3.444,0,1,1,3.444-3.444A3.444,3.444,0,0,1,7.444,7.889Zm0-5.511A2.067,2.067,0,1,0,9.511,4.444,2.067,2.067,0,0,0,7.444,2.378Z" transform="translate(-0.933)" fill="#fff" stroke="#fff" stroke-width="0.3"/><path d="M5.822,16.9H3.756A2.756,2.756,0,0,1,1,14.145V12.94a.689.689,0,0,1,.434-.641l2.2-.861a.682.682,0,1,1,.5,1.268l-1.757.7v.737a1.378,1.378,0,0,0,1.378,1.378H5.822a.689.689,0,1,1,0,1.378Z" transform="translate(0 -3.232)" fill="#fff" stroke="#fff" stroke-width="0.3"/><path d="M21.444,7.889a3.444,3.444,0,1,1,3.444-3.444A3.444,3.444,0,0,1,21.444,7.889Zm0-5.511a2.067,2.067,0,1,0,2.067,2.067A2.067,2.067,0,0,0,21.444,2.378Z" transform="translate(-5.289)" fill="#fff" stroke="#fff" stroke-width="0.3"/><path d="M25.756,16.9H23.689a.689.689,0,0,1,0-1.378h2.067a1.378,1.378,0,0,0,1.378-1.378v-.737l-1.757-.689a.691.691,0,0,1,.5-1.288l2.2.861a.689.689,0,0,1,.434.641v1.206A2.756,2.756,0,0,1,25.756,16.9Z" transform="translate(-6.844 -3.23)" fill="#fff" stroke="#fff" stroke-width="0.3"/></g></svg>