<svg xmlns="http://www.w3.org/2000/svg" width="21.85" height="21.85" viewBox="0 0 21.85 21.85">
    <path d="M0,0H21.85V21.85H0Z" fill="none" />
    <path d="M13.036,13.074v1.9a5.384,5.384,0,0,0-4.938.691,5.481,5.481,0,0,0-2.291,4.464H4a7.311,7.311,0,0,1,2.8-5.764,7.181,7.181,0,0,1,6.234-1.3Zm-1.807-1.141A5.467,5.467,0,1,1,16.65,6.467,5.443,5.443,0,0,1,11.228,11.933Zm0-1.822A3.645,3.645,0,1,0,7.614,6.467,3.628,3.628,0,0,0,11.228,10.111Zm5.234,8.122,3.194-3.221L20.935,16.3l-4.473,4.51-3.195-3.222L14.546,16.3l1.916,1.932Z" transform="translate(-0.221 -0.096)" fill="currentColor" />
</svg>