<svg xmlns="http://www.w3.org/2000/svg" width="24" height="24" viewBox="0 0 24 24"><path d="M13.08,26.125a.739.739,0,0,1-.577-.277L9.77,22.432H2V20.955h8.125a.739.739,0,0,1,.577.277l2.324,2.9L16.9,18.329A.739.739,0,0,1,18.1,18.3L20.1,20.955h2.585v1.477H19.727a.738.738,0,0,1-.591-.3l-1.59-2.119L13.694,25.8a.738.738,0,0,1-.582.328Z" transform="translate(-0.341 -3.705)" fill="#fff"/><path d="M9.794,14.124V9.794h.866A3.468,3.468,0,0,0,14.124,6.33v-2.6h-2.6a3.445,3.445,0,0,0-2.379.958A5.2,5.2,0,0,0,4.6,2H2V4.6a5.2,5.2,0,0,0,5.2,5.2h.866v4.33H2v1.732H14.124V14.124Zm1.732-8.66h.866V6.33A1.734,1.734,0,0,1,10.66,8.062H9.794V7.2a1.734,1.734,0,0,1,1.732-1.732ZM7.2,8.062A3.468,3.468,0,0,1,3.732,4.6V3.732H4.6A3.468,3.468,0,0,1,8.062,7.2v.866Z" transform="translate(-0.341 -0.523)" fill="#fff"/><rect width="24" height="24" fill="none"/></svg>