<svg xmlns="http://www.w3.org/2000/svg" width="22" height="22" viewBox="0 0 22 22"><g transform="translate(-31 -9)"><g transform="translate(30 8)"><path d="M22,15V3a1,1,0,0,0,0-2H2A1,1,0,0,0,2,3V15a1,1,0,0,0,0,2h9v1.5L7.4,21.2a1,1,0,1,0,1.2,1.6L11,21v1a1,1,0,0,0,2,0V21l2.4,1.8a1,1,0,1,0,1.2-1.6L13,18.5V17h9a1,1,0,0,0,0-2ZM4,15V3H20V15Z" fill="#fff"/><path d="M15.29,6.29,13,8.59l-1.29-1.3a1,1,0,0,0-1.42,0l-3,3A1,1,0,0,0,8,12c.55,0,.54-.13,3-2.59l1.29,1.3a1,1,0,0,0,1.42,0l3-3a1,1,0,1,0-1.42-1.42Z" fill="#fff"/></g></g></svg>