<svg xmlns="http://www.w3.org/2000/svg" width="23.517" height="23.625" viewBox="0 0 23.517 23.625"><g transform="translate(-1259 -871)"><path d="M1261.729,883.188l3.264,2.917-4.93,1.944Z" transform="translate(0.118 1.353)" fill="#fff"/><circle cx="9.025" cy="9.025" r="9.025" transform="translate(1260.062 872.062)" fill="#fff"/><path d="M11.587,2A9.533,9.533,0,0,0,3.266,16.181L2.1,19.235A1.466,1.466,0,0,0,3.864,21.17l3.647-1.022A9.531,9.531,0,1,0,11.587,2ZM3.522,11.531a8.059,8.059,0,1,1,4.4,7.184l-.255-.131L3.469,19.758,4.89,16.04,4.7,15.732A8.023,8.023,0,0,1,3.522,11.531ZM15.931,25.46a9.509,9.509,0,0,1-7.224-3.313,11,11,0,0,0,2.58.377,8.074,8.074,0,0,0,8.312.589l.255-.131,4.193,1.174-1.421-3.718.188-.307a8.07,8.07,0,0,0-.233-8.762,11.012,11.012,0,0,0-.345-2.584,9.535,9.535,0,0,1,2.013,11.8l1.167,3.053a1.466,1.466,0,0,1-1.765,1.935l-3.647-1.022A9.5,9.5,0,0,1,15.931,25.46Z" transform="translate(1257 869)" fill="#212121"/><path d="M3.961-15.972a4.172,4.172,0,0,1,1.252.174,2.794,2.794,0,0,1,.942.49,2.144,2.144,0,0,1,.594.755,2.244,2.244,0,0,1,.206.968v.142a2.361,2.361,0,0,1-.071.587,2.047,2.047,0,0,1-.245.561,3.836,3.836,0,0,1-.477.606q-.3.323-.755.735-.284.258-.452.445a2,2,0,0,0-.258.348.975.975,0,0,0-.116.323,2.346,2.346,0,0,0-.026.368A.546.546,0,0,1,4.329-9a.853.853,0,0,1-.523.168A.948.948,0,0,1,3.252-9a.577.577,0,0,1-.232-.51,4.314,4.314,0,0,1,.039-.606,2.015,2.015,0,0,1,.148-.523,2.062,2.062,0,0,1,.323-.5A5.719,5.719,0,0,1,4.09-11.7q.4-.348.639-.587A2.949,2.949,0,0,0,5.1-12.72a1.135,1.135,0,0,0,.168-.355A1.52,1.52,0,0,0,5.3-13.43v-.065a.972.972,0,0,0-.077-.387.9.9,0,0,0-.239-.323,1.173,1.173,0,0,0-.426-.226,2.181,2.181,0,0,0-.652-.084,2.422,2.422,0,0,0-.9.155,3.594,3.594,0,0,0-.735.4.623.623,0,0,1-.51.123.742.742,0,0,1-.432-.3.8.8,0,0,1-.174-.523.6.6,0,0,1,.265-.484,3.941,3.941,0,0,1,1.1-.6A4.227,4.227,0,0,1,3.961-15.972Zm-.168,8a.947.947,0,0,1,.7.284.947.947,0,0,1,.284.7.947.947,0,0,1-.284.7.947.947,0,0,1-.7.284.947.947,0,0,1-.7-.284.947.947,0,0,1-.284-.7.947.947,0,0,1,.284-.7A.947.947,0,0,1,3.794-7.972Z" transform="translate(1264.267 891.468)" fill="#1a1311"/></g></svg>