<svg xmlns="http://www.w3.org/2000/svg" width="22" height="22" viewBox="0 0 22 22">
  <path d="M11.625,2a9.625,9.625,0,1,0,9.625,9.625A9.625,9.625,0,0,0,11.625,2Zm0,15.813a1.031,1.031,0,1,1,1.031-1.031,1.031,1.031,0,0,1-1.031,1.031Zm.785-5.331V14.2H10.863V10.938h1.461a1.634,1.634,0,1,0,0-3.267H11.293A1.635,1.635,0,0,0,9.66,9.3v.438H8.113V9.3a3.182,3.182,0,0,1,3.18-3.178h1.031a3.179,3.179,0,1,1,.086,6.357Z" transform="translate(-0.625 -0.625)" />
  <path d="M14.4,19.687a1.031,1.031,0,1,1,1.031-1.031A1.031,1.031,0,0,1,14.4,19.687Zm.785-5.331v1.72H13.642V12.812H15.1a1.634,1.634,0,1,0,0-3.267H14.072a1.635,1.635,0,0,0-1.633,1.633v.438H10.892v-.438A3.182,3.182,0,0,1,14.072,8H15.1a3.179,3.179,0,1,1,.086,6.357Z" transform="translate(-3.404 -2.5)" fill="none" />
</svg>