<svg xmlns="http://www.w3.org/2000/svg" width="20.961" height="22.896" viewBox="0 0 20.961 22.896"><rect width="15.969" height="22.356" transform="translate(4.136 0.54)" fill="#fff"/><path d="M24.821,25.436H8.14a.713.713,0,0,1-.713-.713V12.274a.713.713,0,1,1,1.427,0V24.009H24.107V5.14a.713.713,0,0,0-.713-.713H6.713A.713.713,0,0,1,6.713,3h16.68a2.14,2.14,0,0,1,2.14,2.14V24.722A.713.713,0,0,1,24.821,25.436Z" transform="translate(-4.573 -3)"/><path d="M7.567,12.988H4.713A.713.713,0,0,1,4,12.274V5.14a2.14,2.14,0,0,1,4.28,0v7.134A.713.713,0,0,1,7.567,12.988Zm-2.14-1.427H6.854V5.14a.713.713,0,1,0-1.427,0Z" transform="translate(-4 -3)"/><path d="M19.533,18.427h-6.82a.713.713,0,1,1,0-1.427h6.82a.713.713,0,1,1,0,1.427Z" transform="translate(-5.587 -2.238)"/><path d="M21.155,22.427H12.832a.722.722,0,1,1,0-1.427h8.323a.722.722,0,1,1,0,1.427Z" transform="translate(-5.587 -3.384)"/><path d="M19.848,6.567H12.713A.713.713,0,0,1,12,5.854V3.713A.713.713,0,0,1,12.713,3h7.134a.713.713,0,0,1,.713.713v2.14A.713.713,0,0,1,19.848,6.567ZM13.427,5.14h5.707V4.427H13.427Z" transform="translate(-4.16 -3)"/><path d="M5.261-15.862a.7.7,0,0,1,.422.137.791.791,0,0,1,.27.473l.57,2.421H7.59l.58-2.594a.5.5,0,0,1,.27-.371.656.656,0,0,1,.432-.046.574.574,0,0,1,.371.234.554.554,0,0,1,.056.468l-.58,2.309h.814a.25.25,0,0,1,.224.107.457.457,0,0,1,.071.259.439.439,0,0,1-.071.249.25.25,0,0,1-.224.107H8.546L7.8-9.119a.767.767,0,0,1-.28.473.714.714,0,0,1-.412.137A.714.714,0,0,1,6.7-8.646a.783.783,0,0,1-.28-.493l-.692-2.97H4.752L4-9.119a.756.756,0,0,1-.285.473.737.737,0,0,1-.417.137.714.714,0,0,1-.412-.137.775.775,0,0,1-.28-.483l-.742-2.98h-1a.25.25,0,0,1-.224-.107.439.439,0,0,1-.071-.249.457.457,0,0,1,.071-.259.25.25,0,0,1,.224-.107h.824l-.57-2.309a.554.554,0,0,1,.056-.468.58.58,0,0,1,.381-.234A.708.708,0,0,1,2-15.806a.507.507,0,0,1,.275.381l.58,2.594H3.959l.61-2.421a.82.82,0,0,1,.259-.473A.687.687,0,0,1,5.261-15.862ZM3.369-10.5l.407-1.607H3.013Zm3.7-.01.356-1.6H6.695ZM4.935-12.831h.62l-.295-1.282Z" transform="translate(6.921 20.856)" fill="#1a1311"/></svg>