<svg xmlns="http://www.w3.org/2000/svg" width="14.3" height="14.3" viewBox="0 0 14.3 14.3">
  <path d="M2.078,8.928a5.924,5.924,0,0,1,0-1.942,1.5,1.5,0,0,0,1.476-.853,1.5,1.5,0,0,0-.441-1.646A5.924,5.924,0,0,1,4.487,3.113a1.5,1.5,0,0,0,1.647.441,1.5,1.5,0,0,0,.852-1.476,5.924,5.924,0,0,1,1.944,0,1.5,1.5,0,0,0,.852,1.476,1.5,1.5,0,0,0,1.646-.441A5.924,5.924,0,0,1,12.8,4.487a1.5,1.5,0,0,0-.441,1.647,1.5,1.5,0,0,0,1.476.852,5.924,5.924,0,0,1,0,1.944,1.5,1.5,0,0,0-1.476.852,1.5,1.5,0,0,0,.441,1.646A5.924,5.924,0,0,1,11.428,12.8a1.5,1.5,0,0,0-1.647-.441,1.5,1.5,0,0,0-.852,1.476,5.924,5.924,0,0,1-1.944,0,1.5,1.5,0,0,0-.852-1.476,1.5,1.5,0,0,0-1.646.441,5.924,5.924,0,0,1-1.375-1.374,1.5,1.5,0,0,0,.441-1.647,1.5,1.5,0,0,0-1.476-.852Zm5.88.816A1.788,1.788,0,1,0,6.17,7.957,1.788,1.788,0,0,0,7.957,9.745Z" transform="translate(-0.807 -0.807)" />
</svg>