<svg xmlns="http://www.w3.org/2000/svg" width="25.232" height="21.581" viewBox="0 0 25.232 21.581"><g transform="translate(-2.25 -5.25)"><rect width="13.326" height="15.376" transform="translate(8.467 9.68)" fill="#fff"/><path d="M24.906,25.517H4.826A1.831,1.831,0,0,1,3,23.691V11.826A1.831,1.831,0,0,1,4.826,10H24.906a1.831,1.831,0,0,1,1.826,1.826V23.691A1.831,1.831,0,0,1,24.906,25.517Z" transform="translate(0 -0.349)" fill="none" stroke="#000" stroke-linecap="round" stroke-linejoin="round" stroke-miterlimit="10" stroke-width="1.5"/><line y2="15.06" transform="translate(8.659 10.016)" fill="none" stroke="#000" stroke-linecap="round" stroke-linejoin="round" stroke-miterlimit="10" stroke-width="1.5"/><line y2="15.06" transform="translate(21.712 10.016)" fill="none" stroke="#000" stroke-linecap="round" stroke-linejoin="round" stroke-miterlimit="10" stroke-width="1.5"/><path d="M20.128,9.651H11V7.826A1.831,1.831,0,0,1,12.826,6H18.3a1.831,1.831,0,0,1,1.826,1.826Z" transform="translate(-0.698)" fill="none" stroke="#000" stroke-linecap="round" stroke-linejoin="round" stroke-miterlimit="10" stroke-width="1.5"/><line y1="1.004" transform="translate(4.643 25.077)" fill="none" stroke="#000" stroke-linecap="round" stroke-linejoin="round" stroke-miterlimit="10" stroke-width="1.5"/><line y1="1.004" transform="translate(24.724 25.077)" fill="none" stroke="#000" stroke-linecap="round" stroke-linejoin="round" stroke-miterlimit="10" stroke-width="1.5"/></g></svg>