<svg xmlns="http://www.w3.org/2000/svg" width="20.967" height="20.967" viewBox="0 0 20.967 20.967"><g transform="translate(-1.837 -1.837)"><path d="M26.811,40.356c-.848-.848-.286-2.626-.719-3.667S24,34.735,24,33.583s1.64-2.027,2.092-3.105-.129-2.82.719-3.667,2.626-.286,3.667-.719S32.432,24,33.583,24s2.027,1.64,3.105,2.092,2.82-.129,3.667.719.286,2.626.719,3.667,2.092,1.954,2.092,3.105-1.64,2.027-2.092,3.105.129,2.82-.719,3.667-2.626.286-3.667.719-1.954,2.092-3.105,2.092-2.027-1.64-3.105-2.092S27.658,41.2,26.811,40.356Z" transform="translate(-21.263 -21.263)" fill="none" stroke="#fff" stroke-linecap="round" stroke-linejoin="round" stroke-width="1.8"/><path d="M92.109,104,86.7,109.16,84,106.58" transform="translate(-75.735 -93.892)" fill="none" stroke="#fff" stroke-linecap="round" stroke-linejoin="round" stroke-width="1.8"/></g></svg>