<svg xmlns="http://www.w3.org/2000/svg" width="24" height="24" viewBox="0 0 24 24"><g transform="translate(0 0.333)"><path d="M26.354,21.917V20.437H24.8a3.674,3.674,0,0,0-.541-1.3l1.1-1.1-1.046-1.046-1.1,1.1a3.674,3.674,0,0,0-1.3-.541V16H20.437v1.554a3.674,3.674,0,0,0-1.3.541l-1.1-1.1-1.046,1.046,1.1,1.1a3.674,3.674,0,0,0-.541,1.3H16v1.479h1.554a3.674,3.674,0,0,0,.541,1.3l-1.1,1.1,1.046,1.046,1.1-1.1a3.674,3.674,0,0,0,1.3.541v1.554h1.479V24.8a3.674,3.674,0,0,0,1.3-.541l1.1,1.1,1.046-1.046-1.1-1.1a3.674,3.674,0,0,0,.541-1.3ZM21.177,23.4A2.219,2.219,0,1,1,23.4,21.177,2.219,2.219,0,0,1,21.177,23.4Z" transform="translate(-4.167 -4.167)" fill="#fff" stroke="#fff" stroke-width="0.3"/><path d="M21.229,4H3.479A1.481,1.481,0,0,0,2,5.479V20.271A1.481,1.481,0,0,0,3.479,21.75h7.4V20.271h-7.4V9.917h17.75v2.219h1.479V5.479A1.481,1.481,0,0,0,21.229,4Zm0,4.437H3.479V5.479h17.75Z" transform="translate(-0.521 -1.042)" fill="#fff" stroke="#fff" stroke-width="0.3"/><circle cx="0.75" cy="0.75" r="0.75" transform="translate(14.26 5.167)" fill="#fff"/><circle cx="0.75" cy="0.75" r="0.75" transform="translate(16.26 5.167)" fill="#fff"/><circle cx="0.75" cy="0.75" r="0.75" transform="translate(18.26 5.167)" fill="#fff"/><rect width="24" height="24" transform="translate(0 -0.333)" fill="none"/></g></svg>