<svg xmlns="http://www.w3.org/2000/svg" width="36" height="36" viewBox="0 0 36 36"><g transform="translate(-984 -295)"><path d="M17.462,26.021V28.28h0V23.2h0ZM34.022,16.8A14.391,14.391,0,1,1,20,5.6a14.258,14.258,0,0,1,7.7,2.25L30.3,5.258A17.82,17.82,0,0,0,20,2,18.048,18.048,0,1,0,36.92,13.9Z" transform="translate(982 293)" fill="#d40000"/><path d="M1555,1211.742l5.844-5.865-5.6-5.618,2.25-2.259,5.6,5.618,5.408-5.427,2.251,2.258-5.409,5.428,5.654,5.674-2.251,2.258-5.654-5.674L1557.25,1214Z" transform="translate(-561 -893)" fill="#d40000"/></g></svg>