<svg xmlns="http://www.w3.org/2000/svg" width="31.625" height="31.625" viewBox="0 0 31.625 31.625"><path d="M15.125,31.438A15.313,15.313,0,0,1,4.3,5.3,15.313,15.313,0,1,1,25.952,26.953,15.212,15.212,0,0,1,15.125,31.438Zm.186-13.482h0l4.517,4.515A1.161,1.161,0,1,0,21.47,20.83l-4.517-4.517L21.47,11.8a1.163,1.163,0,0,0-.822-1.984,1.148,1.148,0,0,0-.82.341l-4.517,4.517L10.8,10.154A1.162,1.162,0,0,0,9.152,11.8l4.516,4.516L9.152,20.83a1.161,1.161,0,1,0,1.642,1.642l4.516-4.515Z" transform="translate(0.688 -0.313)" fill="#d40000" stroke="rgba(0,0,0,0)" stroke-miterlimit="10" stroke-width="1"/></svg>