<?xml version="1.0" standalone="no"?>
<!DOCTYPE svg PUBLIC "-//W3C//DTD SVG 20010904//EN"
 "http://www.w3.org/TR/2001/REC-SVG-20010904/DTD/svg10.dtd">
<svg version="1.0" xmlns="http://www.w3.org/2000/svg"
 width="700.000000pt" height="700.000000pt" viewBox="0 0 700.000000 700.000000"
 preserveAspectRatio="xMidYMid meet">
<metadata>
Created by potrace 1.14, written by Peter Selinger 2001-2017
</metadata>
<g transform="translate(0.000000,700.000000) scale(0.100000,-0.100000)"
fill="#000000" stroke="none">
<path d="M3280 6994 c-19 -2 -84 -9 -145 -14 -639 -62 -1264 -315 -1795 -726
-149 -115 -481 -446 -595 -594 -410 -532 -653 -1132 -727 -1795 -17 -155 -17
-575 0 -730 75 -673 332 -1300 748 -1820 114 -143 339 -372 484 -494 537 -451
1163 -717 1885 -803 142 -17 586 -17 730 0 682 79 1268 318 1802 734 138 107
389 351 512 498 451 538 717 1162 803 1885 16 139 16 595 0 730 -77 629 -275
1158 -620 1649 -234 333 -577 668 -917 896 -460 308 -968 495 -1535 566 -117
15 -552 27 -630 18z m-965 -1801 l290 -179 5 -1025 5 -1024 24 -70 c117 -347
410 -565 760 -565 405 0 736 290 790 693 7 48 11 297 11 633 l0 554 315 0 316
0 -4 -652 c-3 -624 -4 -657 -24 -739 -75 -303 -214 -547 -430 -749 -206 -192
-463 -319 -741 -365 -128 -21 -404 -16 -522 10 -561 123 -979 544 -1113 1120
-21 88 -21 113 -24 1328 l-4 1238 28 -15 c15 -8 159 -95 318 -193z m2947
-2889 c64 -21 140 -91 175 -162 36 -74 39 -191 6 -263 -86 -190 -324 -250
-490 -123 -78 60 -131 183 -119 282 9 75 48 152 102 202 91 84 197 105 326 64z"/>
</g>
</svg>
